<?xml version="1.0" standalone="no"?>
<!DOCTYPE svg PUBLIC "-//W3C//DTD SVG 20010904//EN"
 "http://www.w3.org/TR/2001/REC-SVG-20010904/DTD/svg10.dtd">
<svg version="1.0" xmlns="http://www.w3.org/2000/svg"
 width="1024.000000pt" height="1024.000000pt" viewBox="0 0 1024.000000 1024.000000"
 preserveAspectRatio="xMidYMid meet">

<g transform="translate(0.000000,1024.000000) scale(0.100000,-0.100000)"
fill="#000000" stroke="none">
<path d="M1683 6564 c-330 -48 -645 -258 -824 -549 -176 -285 -219 -673 -110
-988 62 -181 160 -334 294 -464 151 -146 297 -231 491 -287 124 -36 193 -46
331 -46 137 0 207 10 332 46 236 67 456 220 605 419 l60 80 -471 3 -471 2 0
900 0 900 -72 -1 c-40 -1 -114 -7 -165 -15z"/>
<path d="M2280 5790 l0 -710 358 0 359 0 18 78 c26 114 31 305 11 427 -31 183
-117 390 -221 525 -68 89 -192 205 -281 265 -68 46 -219 125 -238 125 -3 0 -6
-319 -6 -710z"/>
<path d="M5530 5183 c0 -373 2 -401 20 -441 24 -53 79 -82 160 -82 79 0 84 6
75 79 -7 61 -7 61 -39 61 -18 0 -37 5 -44 12 -9 9 -12 109 -12 390 l0 378 -80
0 -80 0 0 -397z"/>
<path d="M3593 5316 c-89 -29 -157 -99 -188 -194 -25 -75 -17 -229 14 -293 29
-60 84 -116 141 -143 65 -30 225 -30 291 0 58 27 110 79 140 140 21 43 24 63
24 169 0 106 -3 126 -24 169 -31 62 -82 113 -140 139 -58 26 -197 33 -258 13z
m195 -146 c47 -29 65 -79 65 -175 0 -137 -44 -195 -148 -195 -103 0 -149 60
-149 195 0 94 21 147 68 176 42 26 121 25 164 -1z"/>
<path d="M4342 5312 c-76 -28 -122 -69 -162 -147 -33 -65 -35 -73 -35 -170 0
-97 2 -105 35 -171 61 -119 160 -171 311 -162 64 4 87 10 126 34 45 27 113
111 113 138 0 10 -107 76 -123 76 -3 0 -7 -10 -11 -23 -3 -12 -19 -36 -36 -52
-29 -27 -37 -30 -100 -30 -54 0 -73 4 -90 20 -83 74 -80 276 5 343 21 17 41
22 88 22 58 0 62 -2 103 -44 l42 -44 56 40 c31 22 56 43 56 47 0 24 -64 91
-106 112 -67 32 -197 37 -272 11z"/>
<path d="M4994 5321 c-51 -13 -118 -49 -148 -80 l-28 -30 22 -33 c50 -71 47
-70 95 -33 57 43 106 58 168 52 54 -5 77 -24 77 -63 0 -33 -41 -60 -112 -73
-210 -40 -282 -106 -263 -240 14 -101 87 -160 198 -161 73 0 113 17 155 65 18
20 34 36 35 34 2 -2 9 -17 17 -32 20 -39 59 -57 124 -57 79 0 86 4 86 59 0 57
-7 68 -45 73 l-30 3 -5 195 c-6 208 -11 229 -62 277 -13 12 -43 29 -67 38 -45
16 -162 19 -217 6z m186 -387 c0 -31 -7 -70 -15 -88 -46 -97 -199 -83 -199 19
0 50 34 78 110 94 33 6 66 16 74 21 26 17 30 11 30 -46z"/>
<path d="M6054 5321 c-51 -13 -118 -49 -148 -80 l-28 -30 22 -33 c50 -71 47
-70 95 -33 57 43 106 58 168 52 54 -5 77 -24 77 -63 0 -33 -41 -60 -112 -73
-210 -40 -282 -106 -263 -240 14 -101 87 -160 198 -161 73 0 113 17 155 65 18
20 34 36 35 34 2 -2 9 -17 17 -32 20 -39 59 -57 124 -57 79 0 86 4 86 59 0 57
-7 68 -45 73 l-30 3 -5 195 c-6 208 -11 229 -62 277 -13 12 -43 29 -67 38 -45
16 -162 19 -217 6z m186 -387 c0 -31 -7 -70 -15 -88 -46 -97 -199 -83 -199 19
0 50 34 78 110 94 33 6 66 16 74 21 26 17 30 11 30 -46z"/>
<path d="M6725 5317 c-54 -18 -96 -41 -133 -72 l-31 -26 35 -54 36 -54 46 33
c57 40 101 56 156 56 57 0 86 -22 86 -65 0 -44 -24 -57 -150 -84 -152 -34
-209 -78 -218 -170 -6 -69 4 -115 35 -152 78 -92 253 -91 325 1 l26 33 16 -31
c25 -49 52 -62 126 -62 88 0 92 4 84 73 -7 56 -7 57 -39 57 -21 0 -35 6 -39
16 -3 9 -6 96 -6 193 0 167 -1 181 -23 222 -36 67 -89 93 -202 96 -55 2 -105
-2 -130 -10z m204 -374 c0 -69 -19 -114 -58 -140 -72 -49 -161 -16 -161 60 0
53 25 74 115 97 44 12 82 23 84 26 14 13 21 -2 20 -43z"/>
<path d="M8124 5321 c-51 -13 -118 -49 -148 -80 l-28 -30 22 -33 c50 -71 47
-70 95 -33 57 43 106 58 168 52 54 -5 77 -24 77 -63 0 -33 -41 -60 -112 -73
-210 -40 -282 -106 -263 -240 14 -101 87 -160 198 -161 73 0 113 17 155 65 18
20 34 36 35 34 2 -2 9 -17 17 -32 20 -39 59 -57 124 -57 79 0 86 4 86 59 0 57
-7 68 -45 73 l-30 3 -5 195 c-6 208 -11 229 -62 277 -13 12 -43 29 -67 38 -45
16 -162 19 -217 6z m186 -387 c0 -31 -7 -70 -15 -88 -46 -97 -199 -83 -199 19
0 50 34 78 110 94 33 6 66 16 74 21 26 17 30 11 30 -46z"/>
<path d="M8795 5317 c-54 -18 -96 -41 -133 -72 l-31 -26 35 -54 36 -54 46 33
c57 40 101 56 156 56 57 0 86 -22 86 -65 0 -44 -24 -57 -150 -84 -152 -34
-209 -78 -218 -170 -6 -69 4 -115 35 -152 78 -92 253 -91 325 1 l26 33 16 -31
c25 -49 52 -62 126 -62 88 0 92 4 84 73 -7 56 -7 57 -39 57 -21 0 -35 6 -39
16 -3 9 -6 96 -6 193 0 167 -1 181 -23 222 -36 67 -89 93 -202 96 -55 2 -105
-2 -130 -10z m204 -374 c0 -69 -19 -114 -58 -140 -72 -49 -161 -16 -161 60 0
53 25 74 115 97 44 12 82 23 84 26 14 13 21 -2 20 -43z"/>
<path d="M7200 5313 c0 -4 53 -150 118 -325 l117 -318 98 2 99 3 99 270 c55
149 108 294 119 323 l20 52 -84 0 -83 0 -79 -227 c-44 -125 -84 -228 -89 -230
-6 -1 -46 101 -90 227 l-79 230 -83 0 c-46 0 -83 -3 -83 -7z"/>
<path d="M9300 5255 l0 -65 150 0 c83 0 150 -3 150 -6 0 -4 -70 -90 -155 -191
l-155 -185 0 -69 0 -69 255 0 255 0 0 65 0 65 -160 0 c-88 0 -160 3 -160 8 0
4 70 89 155 190 l155 184 0 69 0 69 -245 0 -245 0 0 -65z"/>
</g>
</svg>
